
<svg width="900" height="560" viewBox="0 0 900 560"
     xmlns="http://www.w3.org/2000/svg">

<style>
  :root {
    --bg:#020617; --panel:#020617; --stroke:#1e293b;
    --text:#e5e7eb; --muted:#94a3b8;
  }
  @media (prefers-color-scheme: light) {
    :root {
      --bg:#f8fafc; --panel:#ffffff; --stroke:#e2e8f0;
      --text:#020617; --muted:#475569;
    }
  }
  text {
    font-family: system-ui, Segoe UI, Roboto, Helvetica, Arial, sans-serif;
  }
  .panel { fill:var(--panel); stroke:var(--stroke); rx:14; }
  .title { fill:var(--text); font-size:28px; font-weight:800; }
  .label { fill:var(--muted); font-size:13px; }
  .value { fill:var(--text); font-size:18px; font-weight:700; }
</style>

<rect width="100%" height="100%" rx="20" fill="var(--bg)"/>

<text x="40" y="48" class="title">Engineering Observability</text>
<text x="40" y="70" class="label">GitHub • DevOps • Cloud • AI</text>

<!-- Heatmap -->
<rect x="30" y="90" width="410" height="220" class="panel"/>
<text x="50" y="115" class="label">Commit Activity (30 Days)</text>

    <rect x="40" y="120" width="18" height="18" rx="4"
      fill="#020617">
      <animate attributeName="opacity"
        values="0.6;1;0.6"
        dur="1.3515288989197627s"
        repeatCount="indefinite"/>
    </rect>
    <rect x="64" y="120" width="18" height="18" rx="4"
      fill="#020617">
      <animate attributeName="opacity"
        values="0.6;1;0.6"
        dur="1.3069278092663286s"
        repeatCount="indefinite"/>
    </rect>
    <rect x="88" y="120" width="18" height="18" rx="4"
      fill="#020617">
      <animate attributeName="opacity"
        values="0.6;1;0.6"
        dur="1.829267303763987s"
        repeatCount="indefinite"/>
    </rect>
    <rect x="112" y="120" width="18" height="18" rx="4"
      fill="#020617">
      <animate attributeName="opacity"
        values="0.6;1;0.6"
        dur="1.5159900528952952s"
        repeatCount="indefinite"/>
    </rect>
    <rect x="136" y="120" width="18" height="18" rx="4"
      fill="#020617">
      <animate attributeName="opacity"
        values="0.6;1;0.6"
        dur="1.46992225817338s"
        repeatCount="indefinite"/>
    </rect>
    <rect x="160" y="120" width="18" height="18" rx="4"
      fill="#020617">
      <animate attributeName="opacity"
        values="0.6;1;0.6"
        dur="2.18888707405642s"
        repeatCount="indefinite"/>
    </rect>
    <rect x="184" y="120" width="18" height="18" rx="4"
      fill="#020617">
      <animate attributeName="opacity"
        values="0.6;1;0.6"
        dur="1.5840729634936666s"
        repeatCount="indefinite"/>
    </rect>
    <rect x="208" y="120" width="18" height="18" rx="4"
      fill="#020617">
      <animate attributeName="opacity"
        values="0.6;1;0.6"
        dur="1.8170394396109666s"
        repeatCount="indefinite"/>
    </rect>
    <rect x="232" y="120" width="18" height="18" rx="4"
      fill="#020617">
      <animate attributeName="opacity"
        values="0.6;1;0.6"
        dur="2.196422849241985s"
        repeatCount="indefinite"/>
    </rect>
    <rect x="256" y="120" width="18" height="18" rx="4"
      fill="#020617">
      <animate attributeName="opacity"
        values="0.6;1;0.6"
        dur="1.7006697844632979s"
        repeatCount="indefinite"/>
    </rect>
    <rect x="280" y="120" width="18" height="18" rx="4"
      fill="#020617">
      <animate attributeName="opacity"
        values="0.6;1;0.6"
        dur="1.3308866668365882s"
        repeatCount="indefinite"/>
    </rect>
    <rect x="304" y="120" width="18" height="18" rx="4"
      fill="#020617">
      <animate attributeName="opacity"
        values="0.6;1;0.6"
        dur="1.8220866823896116s"
        repeatCount="indefinite"/>
    </rect>
    <rect x="328" y="120" width="18" height="18" rx="4"
      fill="#020617">
      <animate attributeName="opacity"
        values="0.6;1;0.6"
        dur="1.5737558039665702s"
        repeatCount="indefinite"/>
    </rect>
    <rect x="352" y="120" width="18" height="18" rx="4"
      fill="#020617">
      <animate attributeName="opacity"
        values="0.6;1;0.6"
        dur="1.2186654760496607s"
        repeatCount="indefinite"/>
    </rect>
    <rect x="376" y="120" width="18" height="18" rx="4"
      fill="#020617">
      <animate attributeName="opacity"
        values="0.6;1;0.6"
        dur="2.0549674318719546s"
        repeatCount="indefinite"/>
    </rect>
    <rect x="40" y="144" width="18" height="18" rx="4"
      fill="#020617">
      <animate attributeName="opacity"
        values="0.6;1;0.6"
        dur="1.5119429395012678s"
        repeatCount="indefinite"/>
    </rect>
    <rect x="64" y="144" width="18" height="18" rx="4"
      fill="#020617">
      <animate attributeName="opacity"
        values="0.6;1;0.6"
        dur="1.5736989546475675s"
        repeatCount="indefinite"/>
    </rect>
    <rect x="88" y="144" width="18" height="18" rx="4"
      fill="#020617">
      <animate attributeName="opacity"
        values="0.6;1;0.6"
        dur="1.2264603402281746s"
        repeatCount="indefinite"/>
    </rect>
    <rect x="112" y="144" width="18" height="18" rx="4"
      fill="#020617">
      <animate attributeName="opacity"
        values="0.6;1;0.6"
        dur="1.3080680540852332s"
        repeatCount="indefinite"/>
    </rect>
    <rect x="136" y="144" width="18" height="18" rx="4"
      fill="#020617">
      <animate attributeName="opacity"
        values="0.6;1;0.6"
        dur="1.3029031992144584s"
        repeatCount="indefinite"/>
    </rect>
    <rect x="160" y="144" width="18" height="18" rx="4"
      fill="#020617">
      <animate attributeName="opacity"
        values="0.6;1;0.6"
        dur="1.5564956845963152s"
        repeatCount="indefinite"/>
    </rect>
    <rect x="184" y="144" width="18" height="18" rx="4"
      fill="#020617">
      <animate attributeName="opacity"
        values="0.6;1;0.6"
        dur="2.0019190650013905s"
        repeatCount="indefinite"/>
    </rect>
    <rect x="208" y="144" width="18" height="18" rx="4"
      fill="#020617">
      <animate attributeName="opacity"
        values="0.6;1;0.6"
        dur="1.7572134159530517s"
        repeatCount="indefinite"/>
    </rect>
    <rect x="232" y="144" width="18" height="18" rx="4"
      fill="#020617">
      <animate attributeName="opacity"
        values="0.6;1;0.6"
        dur="1.7819812981117402s"
        repeatCount="indefinite"/>
    </rect>
    <rect x="256" y="144" width="18" height="18" rx="4"
      fill="#020617">
      <animate attributeName="opacity"
        values="0.6;1;0.6"
        dur="1.9627554979198023s"
        repeatCount="indefinite"/>
    </rect>
    <rect x="280" y="144" width="18" height="18" rx="4"
      fill="#020617">
      <animate attributeName="opacity"
        values="0.6;1;0.6"
        dur="1.4368781806468944s"
        repeatCount="indefinite"/>
    </rect>
    <rect x="304" y="144" width="18" height="18" rx="4"
      fill="#020617">
      <animate attributeName="opacity"
        values="0.6;1;0.6"
        dur="2.1262066642806907s"
        repeatCount="indefinite"/>
    </rect>
    <rect x="328" y="144" width="18" height="18" rx="4"
      fill="#020617">
      <animate attributeName="opacity"
        values="0.6;1;0.6"
        dur="1.6372911565226096s"
        repeatCount="indefinite"/>
    </rect>
    <rect x="352" y="144" width="18" height="18" rx="4"
      fill="#22c55e">
      <animate attributeName="opacity"
        values="0.6;1;0.6"
        dur="2.10837314567897s"
        repeatCount="indefinite"/>
    </rect>
    <rect x="376" y="144" width="18" height="18" rx="4"
      fill="#020617">
      <animate attributeName="opacity"
        values="0.6;1;0.6"
        dur="2.1055137465679437s"
        repeatCount="indefinite"/>
    </rect>

<!-- CI/CD -->
<rect x="470" y="90" width="400" height="100" class="panel"/>
<text x="490" y="120" class="label">CI/CD Throughput</text>
<polyline points="490,148.2 504,153.8 518,142.6 532,146.8 546,155.2 560,142.6 574,158.0 588,156.6 602,142.6 616,156.6 630,139.8 644,141.2 658,151.0 672,155.2 686,139.8 700,144.0 714,137.0 728,153.8 742,149.6 756,138.4" fill="none" stroke="#38bdf8" stroke-width="2"/>

<!-- PR Velocity -->
<rect x="470" y="205" width="400" height="100" class="panel"/>
<text x="490" y="235" class="label">PR Velocity</text>
<polyline points="490,254.8 504,274.4 518,274.4 532,252.0 546,268.8 560,252.0 574,271.6 588,266.0 602,266.0 616,257.6 630,268.8 644,254.8 658,268.8 672,254.8 686,274.4 700,277.2 714,260.4 728,274.4 742,274.4 756,266.0" fill="none" stroke="#22c55e" stroke-width="2"/>
<text x="760" y="255" class="value">0 PRs</text>

<!-- DORA -->
<rect x="30" y="330" width="410" height="180" class="panel"/>
<text x="50" y="360" class="label">DORA Metrics</text>
<text x="50" y="390" class="value">Deploy Frequency: 33/week</text>
<text x="50" y="415" class="value">Lead Time: 41 min</text>
<text x="50" y="440" class="value">MTTR: 57 min</text>
<text x="50" y="465" class="value">Change Failure: 4%</text>

<!-- Kubernetes -->
<rect x="470" y="330" width="400" height="180" class="panel"/>
<text x="490" y="360" class="label">Kubernetes Cluster</text>

<circle cx="670" cy="410" r="20" fill="#38bdf8"/>
<circle cx="610" cy="455" r="14" fill="#22c55e"/>
<circle cx="670" cy="455" r="14" fill="#22c55e"/>
<circle cx="730" cy="455" r="14" fill="#22c55e"/>

<line x1="670" y1="430" x2="610" y2="440" stroke="#64748b"/>
<line x1="670" y1="430" x2="670" y2="440" stroke="#64748b"/>
<line x1="670" y1="430" x2="730" y2="440" stroke="#64748b"/>

<!-- Footer -->
<text x="40" y="535" class="label">
  Streak 🔥 35 days • Commits 5 • Issues 0
  • Stars 0 • Forks 0
</text>

</svg>
