
<svg width="900" height="560" viewBox="0 0 900 560"
     xmlns="http://www.w3.org/2000/svg">

<style>
  :root {
    --bg:#020617; --panel:#020617; --stroke:#1e293b;
    --text:#e5e7eb; --muted:#94a3b8;
  }
  @media (prefers-color-scheme: light) {
    :root {
      --bg:#f8fafc; --panel:#ffffff; --stroke:#e2e8f0;
      --text:#020617; --muted:#475569;
    }
  }
  text {
    font-family: system-ui, Segoe UI, Roboto, Helvetica, Arial, sans-serif;
  }
  .panel { fill:var(--panel); stroke:var(--stroke); rx:14; }
  .title { fill:var(--text); font-size:28px; font-weight:800; }
  .label { fill:var(--muted); font-size:13px; }
  .value { fill:var(--text); font-size:18px; font-weight:700; }
</style>

<rect width="100%" height="100%" rx="20" fill="var(--bg)"/>

<text x="40" y="48" class="title">Engineering Observability</text>
<text x="40" y="70" class="label">GitHub • DevOps • Cloud • AI</text>

<!-- Heatmap -->
<rect x="30" y="90" width="410" height="220" class="panel"/>
<text x="50" y="115" class="label">Commit Activity (30 Days)</text>

    <rect x="40" y="120" width="18" height="18" rx="4"
      fill="#020617">
      <animate attributeName="opacity"
        values="0.6;1;0.6"
        dur="1.638215643653843s"
        repeatCount="indefinite"/>
    </rect>
    <rect x="64" y="120" width="18" height="18" rx="4"
      fill="#020617">
      <animate attributeName="opacity"
        values="0.6;1;0.6"
        dur="1.3516274853590344s"
        repeatCount="indefinite"/>
    </rect>
    <rect x="88" y="120" width="18" height="18" rx="4"
      fill="#16a34a">
      <animate attributeName="opacity"
        values="0.6;1;0.6"
        dur="1.3712885243784378s"
        repeatCount="indefinite"/>
    </rect>
    <rect x="112" y="120" width="18" height="18" rx="4"
      fill="#38bdf8">
      <animate attributeName="opacity"
        values="0.6;1;0.6"
        dur="1.828145867410682s"
        repeatCount="indefinite"/>
    </rect>
    <rect x="136" y="120" width="18" height="18" rx="4"
      fill="#020617">
      <animate attributeName="opacity"
        values="0.6;1;0.6"
        dur="1.8585634903541877s"
        repeatCount="indefinite"/>
    </rect>
    <rect x="160" y="120" width="18" height="18" rx="4"
      fill="#020617">
      <animate attributeName="opacity"
        values="0.6;1;0.6"
        dur="1.7962770452050663s"
        repeatCount="indefinite"/>
    </rect>
    <rect x="184" y="120" width="18" height="18" rx="4"
      fill="#020617">
      <animate attributeName="opacity"
        values="0.6;1;0.6"
        dur="1.4507808754874585s"
        repeatCount="indefinite"/>
    </rect>
    <rect x="208" y="120" width="18" height="18" rx="4"
      fill="#020617">
      <animate attributeName="opacity"
        values="0.6;1;0.6"
        dur="1.346426892661809s"
        repeatCount="indefinite"/>
    </rect>
    <rect x="232" y="120" width="18" height="18" rx="4"
      fill="#020617">
      <animate attributeName="opacity"
        values="0.6;1;0.6"
        dur="1.934299000009353s"
        repeatCount="indefinite"/>
    </rect>
    <rect x="256" y="120" width="18" height="18" rx="4"
      fill="#020617">
      <animate attributeName="opacity"
        values="0.6;1;0.6"
        dur="1.7898649016295325s"
        repeatCount="indefinite"/>
    </rect>
    <rect x="280" y="120" width="18" height="18" rx="4"
      fill="#020617">
      <animate attributeName="opacity"
        values="0.6;1;0.6"
        dur="1.7323925605754176s"
        repeatCount="indefinite"/>
    </rect>
    <rect x="304" y="120" width="18" height="18" rx="4"
      fill="#020617">
      <animate attributeName="opacity"
        values="0.6;1;0.6"
        dur="2.140996326049402s"
        repeatCount="indefinite"/>
    </rect>
    <rect x="328" y="120" width="18" height="18" rx="4"
      fill="#020617">
      <animate attributeName="opacity"
        values="0.6;1;0.6"
        dur="1.7544077952276043s"
        repeatCount="indefinite"/>
    </rect>
    <rect x="352" y="120" width="18" height="18" rx="4"
      fill="#020617">
      <animate attributeName="opacity"
        values="0.6;1;0.6"
        dur="1.5075162083207563s"
        repeatCount="indefinite"/>
    </rect>
    <rect x="376" y="120" width="18" height="18" rx="4"
      fill="#020617">
      <animate attributeName="opacity"
        values="0.6;1;0.6"
        dur="1.5665472796193938s"
        repeatCount="indefinite"/>
    </rect>
    <rect x="40" y="144" width="18" height="18" rx="4"
      fill="#020617">
      <animate attributeName="opacity"
        values="0.6;1;0.6"
        dur="1.959418167409925s"
        repeatCount="indefinite"/>
    </rect>
    <rect x="64" y="144" width="18" height="18" rx="4"
      fill="#020617">
      <animate attributeName="opacity"
        values="0.6;1;0.6"
        dur="1.4553249088584113s"
        repeatCount="indefinite"/>
    </rect>
    <rect x="88" y="144" width="18" height="18" rx="4"
      fill="#020617">
      <animate attributeName="opacity"
        values="0.6;1;0.6"
        dur="1.9551799232151803s"
        repeatCount="indefinite"/>
    </rect>
    <rect x="112" y="144" width="18" height="18" rx="4"
      fill="#020617">
      <animate attributeName="opacity"
        values="0.6;1;0.6"
        dur="2.0874596326238795s"
        repeatCount="indefinite"/>
    </rect>
    <rect x="136" y="144" width="18" height="18" rx="4"
      fill="#020617">
      <animate attributeName="opacity"
        values="0.6;1;0.6"
        dur="1.6216451078951382s"
        repeatCount="indefinite"/>
    </rect>
    <rect x="160" y="144" width="18" height="18" rx="4"
      fill="#020617">
      <animate attributeName="opacity"
        values="0.6;1;0.6"
        dur="1.34825367072999s"
        repeatCount="indefinite"/>
    </rect>
    <rect x="184" y="144" width="18" height="18" rx="4"
      fill="#020617">
      <animate attributeName="opacity"
        values="0.6;1;0.6"
        dur="1.5090805250990904s"
        repeatCount="indefinite"/>
    </rect>
    <rect x="208" y="144" width="18" height="18" rx="4"
      fill="#020617">
      <animate attributeName="opacity"
        values="0.6;1;0.6"
        dur="2.1773473361203335s"
        repeatCount="indefinite"/>
    </rect>
    <rect x="232" y="144" width="18" height="18" rx="4"
      fill="#020617">
      <animate attributeName="opacity"
        values="0.6;1;0.6"
        dur="1.6706350875746634s"
        repeatCount="indefinite"/>
    </rect>
    <rect x="256" y="144" width="18" height="18" rx="4"
      fill="#020617">
      <animate attributeName="opacity"
        values="0.6;1;0.6"
        dur="1.3187978749836924s"
        repeatCount="indefinite"/>
    </rect>
    <rect x="280" y="144" width="18" height="18" rx="4"
      fill="#020617">
      <animate attributeName="opacity"
        values="0.6;1;0.6"
        dur="1.3712010121816198s"
        repeatCount="indefinite"/>
    </rect>
    <rect x="304" y="144" width="18" height="18" rx="4"
      fill="#020617">
      <animate attributeName="opacity"
        values="0.6;1;0.6"
        dur="1.9585231500182076s"
        repeatCount="indefinite"/>
    </rect>
    <rect x="328" y="144" width="18" height="18" rx="4"
      fill="#020617">
      <animate attributeName="opacity"
        values="0.6;1;0.6"
        dur="1.2978737702959573s"
        repeatCount="indefinite"/>
    </rect>
    <rect x="352" y="144" width="18" height="18" rx="4"
      fill="#020617">
      <animate attributeName="opacity"
        values="0.6;1;0.6"
        dur="1.98952721193813s"
        repeatCount="indefinite"/>
    </rect>
    <rect x="376" y="144" width="18" height="18" rx="4"
      fill="#020617">
      <animate attributeName="opacity"
        values="0.6;1;0.6"
        dur="1.8492311408870683s"
        repeatCount="indefinite"/>
    </rect>

<!-- CI/CD -->
<rect x="470" y="90" width="400" height="100" class="panel"/>
<text x="490" y="120" class="label">CI/CD Throughput</text>
<polyline points="490,153.8 504,151.0 518,152.4 532,153.8 546,137.0 560,146.8 574,156.6 588,142.6 602,149.6 616,156.6 630,158.0 644,141.2 658,146.8 672,142.6 686,152.4 700,138.4 714,148.2 728,155.2 742,144.0 756,151.0" fill="none" stroke="#38bdf8" stroke-width="2"/>

<!-- PR Velocity -->
<rect x="470" y="205" width="400" height="100" class="panel"/>
<text x="490" y="235" class="label">PR Velocity</text>
<polyline points="490,268.8 504,266.0 518,268.8 532,271.6 546,271.6 560,254.8 574,277.2 588,274.4 602,263.2 616,252.0 630,274.4 644,254.8 658,268.8 672,260.4 686,266.0 700,254.8 714,266.0 728,252.0 742,263.2 756,274.4" fill="none" stroke="#22c55e" stroke-width="2"/>
<text x="760" y="255" class="value">0 PRs</text>

<!-- DORA -->
<rect x="30" y="330" width="410" height="180" class="panel"/>
<text x="50" y="360" class="label">DORA Metrics</text>
<text x="50" y="390" class="value">Deploy Frequency: 27/week</text>
<text x="50" y="415" class="value">Lead Time: 40 min</text>
<text x="50" y="440" class="value">MTTR: 28 min</text>
<text x="50" y="465" class="value">Change Failure: 8%</text>

<!-- Kubernetes -->
<rect x="470" y="330" width="400" height="180" class="panel"/>
<text x="490" y="360" class="label">Kubernetes Cluster</text>

<circle cx="670" cy="410" r="20" fill="#38bdf8"/>
<circle cx="610" cy="455" r="14" fill="#22c55e"/>
<circle cx="670" cy="455" r="14" fill="#22c55e"/>
<circle cx="730" cy="455" r="14" fill="#22c55e"/>

<line x1="670" y1="430" x2="610" y2="440" stroke="#64748b"/>
<line x1="670" y1="430" x2="670" y2="440" stroke="#64748b"/>
<line x1="670" y1="430" x2="730" y2="440" stroke="#64748b"/>

<!-- Footer -->
<text x="40" y="535" class="label">
  Streak 🔥 19 days • Commits 22 • Issues 0
  • Stars 0 • Forks 0
</text>

</svg>
