
<svg width="900" height="560" viewBox="0 0 900 560"
     xmlns="http://www.w3.org/2000/svg">

<style>
  :root {
    --bg:#020617; --panel:#020617; --stroke:#1e293b;
    --text:#e5e7eb; --muted:#94a3b8;
  }
  @media (prefers-color-scheme: light) {
    :root {
      --bg:#f8fafc; --panel:#ffffff; --stroke:#e2e8f0;
      --text:#020617; --muted:#475569;
    }
  }
  text {
    font-family: system-ui, Segoe UI, Roboto, Helvetica, Arial, sans-serif;
  }
  .panel { fill:var(--panel); stroke:var(--stroke); rx:14; }
  .title { fill:var(--text); font-size:28px; font-weight:800; }
  .label { fill:var(--muted); font-size:13px; }
  .value { fill:var(--text); font-size:18px; font-weight:700; }
</style>

<rect width="100%" height="100%" rx="20" fill="var(--bg)"/>

<text x="40" y="48" class="title">Engineering Observability</text>
<text x="40" y="70" class="label">GitHub • DevOps • Cloud • AI</text>

<!-- Heatmap -->
<rect x="30" y="90" width="410" height="220" class="panel"/>
<text x="50" y="115" class="label">Commit Activity (30 Days)</text>

    <rect x="40" y="120" width="18" height="18" rx="4"
      fill="#020617">
      <animate attributeName="opacity"
        values="0.6;1;0.6"
        dur="1.5891364561965027s"
        repeatCount="indefinite"/>
    </rect>
    <rect x="64" y="120" width="18" height="18" rx="4"
      fill="#020617">
      <animate attributeName="opacity"
        values="0.6;1;0.6"
        dur="1.7261159005911935s"
        repeatCount="indefinite"/>
    </rect>
    <rect x="88" y="120" width="18" height="18" rx="4"
      fill="#020617">
      <animate attributeName="opacity"
        values="0.6;1;0.6"
        dur="1.8601768721994965s"
        repeatCount="indefinite"/>
    </rect>
    <rect x="112" y="120" width="18" height="18" rx="4"
      fill="#020617">
      <animate attributeName="opacity"
        values="0.6;1;0.6"
        dur="1.4751749247548818s"
        repeatCount="indefinite"/>
    </rect>
    <rect x="136" y="120" width="18" height="18" rx="4"
      fill="#020617">
      <animate attributeName="opacity"
        values="0.6;1;0.6"
        dur="1.459515460878257s"
        repeatCount="indefinite"/>
    </rect>
    <rect x="160" y="120" width="18" height="18" rx="4"
      fill="#020617">
      <animate attributeName="opacity"
        values="0.6;1;0.6"
        dur="1.5617644274160842s"
        repeatCount="indefinite"/>
    </rect>
    <rect x="184" y="120" width="18" height="18" rx="4"
      fill="#020617">
      <animate attributeName="opacity"
        values="0.6;1;0.6"
        dur="1.8616298572968815s"
        repeatCount="indefinite"/>
    </rect>
    <rect x="208" y="120" width="18" height="18" rx="4"
      fill="#020617">
      <animate attributeName="opacity"
        values="0.6;1;0.6"
        dur="1.2475358294723282s"
        repeatCount="indefinite"/>
    </rect>
    <rect x="232" y="120" width="18" height="18" rx="4"
      fill="#020617">
      <animate attributeName="opacity"
        values="0.6;1;0.6"
        dur="1.2469184295132534s"
        repeatCount="indefinite"/>
    </rect>
    <rect x="256" y="120" width="18" height="18" rx="4"
      fill="#020617">
      <animate attributeName="opacity"
        values="0.6;1;0.6"
        dur="1.391507268010554s"
        repeatCount="indefinite"/>
    </rect>
    <rect x="280" y="120" width="18" height="18" rx="4"
      fill="#020617">
      <animate attributeName="opacity"
        values="0.6;1;0.6"
        dur="1.2193564708905895s"
        repeatCount="indefinite"/>
    </rect>
    <rect x="304" y="120" width="18" height="18" rx="4"
      fill="#020617">
      <animate attributeName="opacity"
        values="0.6;1;0.6"
        dur="1.279889039826312s"
        repeatCount="indefinite"/>
    </rect>
    <rect x="328" y="120" width="18" height="18" rx="4"
      fill="#020617">
      <animate attributeName="opacity"
        values="0.6;1;0.6"
        dur="1.2223871786735536s"
        repeatCount="indefinite"/>
    </rect>
    <rect x="352" y="120" width="18" height="18" rx="4"
      fill="#020617">
      <animate attributeName="opacity"
        values="0.6;1;0.6"
        dur="1.715477583892718s"
        repeatCount="indefinite"/>
    </rect>
    <rect x="376" y="120" width="18" height="18" rx="4"
      fill="#020617">
      <animate attributeName="opacity"
        values="0.6;1;0.6"
        dur="1.885693119772959s"
        repeatCount="indefinite"/>
    </rect>
    <rect x="40" y="144" width="18" height="18" rx="4"
      fill="#020617">
      <animate attributeName="opacity"
        values="0.6;1;0.6"
        dur="1.8442801339492565s"
        repeatCount="indefinite"/>
    </rect>
    <rect x="64" y="144" width="18" height="18" rx="4"
      fill="#020617">
      <animate attributeName="opacity"
        values="0.6;1;0.6"
        dur="2.0342628726565364s"
        repeatCount="indefinite"/>
    </rect>
    <rect x="88" y="144" width="18" height="18" rx="4"
      fill="#16a34a">
      <animate attributeName="opacity"
        values="0.6;1;0.6"
        dur="1.9431921481712444s"
        repeatCount="indefinite"/>
    </rect>
    <rect x="112" y="144" width="18" height="18" rx="4"
      fill="#38bdf8">
      <animate attributeName="opacity"
        values="0.6;1;0.6"
        dur="2.1873434274330847s"
        repeatCount="indefinite"/>
    </rect>
    <rect x="136" y="144" width="18" height="18" rx="4"
      fill="#020617">
      <animate attributeName="opacity"
        values="0.6;1;0.6"
        dur="1.5499001704210054s"
        repeatCount="indefinite"/>
    </rect>
    <rect x="160" y="144" width="18" height="18" rx="4"
      fill="#020617">
      <animate attributeName="opacity"
        values="0.6;1;0.6"
        dur="2.082756670371166s"
        repeatCount="indefinite"/>
    </rect>
    <rect x="184" y="144" width="18" height="18" rx="4"
      fill="#020617">
      <animate attributeName="opacity"
        values="0.6;1;0.6"
        dur="2.071032919405056s"
        repeatCount="indefinite"/>
    </rect>
    <rect x="208" y="144" width="18" height="18" rx="4"
      fill="#020617">
      <animate attributeName="opacity"
        values="0.6;1;0.6"
        dur="1.4847258095631086s"
        repeatCount="indefinite"/>
    </rect>
    <rect x="232" y="144" width="18" height="18" rx="4"
      fill="#020617">
      <animate attributeName="opacity"
        values="0.6;1;0.6"
        dur="1.273809356756828s"
        repeatCount="indefinite"/>
    </rect>
    <rect x="256" y="144" width="18" height="18" rx="4"
      fill="#020617">
      <animate attributeName="opacity"
        values="0.6;1;0.6"
        dur="1.8503734264864984s"
        repeatCount="indefinite"/>
    </rect>
    <rect x="280" y="144" width="18" height="18" rx="4"
      fill="#020617">
      <animate attributeName="opacity"
        values="0.6;1;0.6"
        dur="1.7529125408901913s"
        repeatCount="indefinite"/>
    </rect>
    <rect x="304" y="144" width="18" height="18" rx="4"
      fill="#020617">
      <animate attributeName="opacity"
        values="0.6;1;0.6"
        dur="1.4101874936147616s"
        repeatCount="indefinite"/>
    </rect>
    <rect x="328" y="144" width="18" height="18" rx="4"
      fill="#020617">
      <animate attributeName="opacity"
        values="0.6;1;0.6"
        dur="2.0336969780790595s"
        repeatCount="indefinite"/>
    </rect>
    <rect x="352" y="144" width="18" height="18" rx="4"
      fill="#020617">
      <animate attributeName="opacity"
        values="0.6;1;0.6"
        dur="1.3881295907869462s"
        repeatCount="indefinite"/>
    </rect>
    <rect x="376" y="144" width="18" height="18" rx="4"
      fill="#020617">
      <animate attributeName="opacity"
        values="0.6;1;0.6"
        dur="1.2517316016211035s"
        repeatCount="indefinite"/>
    </rect>

<!-- CI/CD -->
<rect x="470" y="90" width="400" height="100" class="panel"/>
<text x="490" y="120" class="label">CI/CD Throughput</text>
<polyline points="490,158.0 504,152.4 518,144.0 532,145.4 546,156.6 560,145.4 574,144.0 588,137.0 602,139.8 616,145.4 630,156.6 644,142.6 658,155.2 672,141.2 686,148.2 700,148.2 714,138.4 728,153.8 742,138.4 756,144.0" fill="none" stroke="#38bdf8" stroke-width="2"/>

<!-- PR Velocity -->
<rect x="470" y="205" width="400" height="100" class="panel"/>
<text x="490" y="235" class="label">PR Velocity</text>
<polyline points="490,271.6 504,277.2 518,268.8 532,268.8 546,260.4 560,277.2 574,252.0 588,254.8 602,271.6 616,266.0 630,257.6 644,252.0 658,260.4 672,277.2 686,252.0 700,271.6 714,268.8 728,260.4 742,252.0 756,274.4" fill="none" stroke="#22c55e" stroke-width="2"/>
<text x="760" y="255" class="value">0 PRs</text>

<!-- DORA -->
<rect x="30" y="330" width="410" height="180" class="panel"/>
<text x="50" y="360" class="label">DORA Metrics</text>
<text x="50" y="390" class="value">Deploy Frequency: 22/week</text>
<text x="50" y="415" class="value">Lead Time: 20 min</text>
<text x="50" y="440" class="value">MTTR: 49 min</text>
<text x="50" y="465" class="value">Change Failure: 5%</text>

<!-- Kubernetes -->
<rect x="470" y="330" width="400" height="180" class="panel"/>
<text x="490" y="360" class="label">Kubernetes Cluster</text>

<circle cx="670" cy="410" r="20" fill="#38bdf8"/>
<circle cx="610" cy="455" r="14" fill="#22c55e"/>
<circle cx="670" cy="455" r="14" fill="#22c55e"/>
<circle cx="730" cy="455" r="14" fill="#22c55e"/>

<line x1="670" y1="430" x2="610" y2="440" stroke="#64748b"/>
<line x1="670" y1="430" x2="670" y2="440" stroke="#64748b"/>
<line x1="670" y1="430" x2="730" y2="440" stroke="#64748b"/>

<!-- Footer -->
<text x="40" y="535" class="label">
  Streak 🔥 29 days • Commits 22 • Issues 0
  • Stars 0 • Forks 0
</text>

</svg>
